<svg width="33" height="32" viewBox="0 0 33 32" fill="none" xmlns="http://www.w3.org/2000/svg">
<g clip-path="url(#clip0_435:38)">
<path d="M22.714 30.2735L17.2633 26.2848L22.5886 22.3878H24.2936C25.2511 22.3878 26.0301 21.6333 26.0301 20.7058C26.0301 20.1294 25.5461 19.6605 24.9513 19.6605H16.9539V12.7587C16.9539 11.8939 17.6808 11.1904 18.5744 11.1904C19.468 11.1904 20.1949 11.8939 20.1949 12.7587C20.1949 13.0097 20.4047 13.2132 20.6636 13.2132C20.919 13.2132 21.1265 13.0153 21.1323 12.7692C21.1328 12.7523 21.1337 12.7204 21.1347 12.6747C21.18 11.8488 21.8885 11.1904 22.7529 11.1904C23.6465 11.1904 24.3735 11.8939 24.3735 12.7587C24.3735 13.0097 24.5833 13.2132 24.8422 13.2132C25.0977 13.2132 25.3054 13.015 25.3108 12.7685C25.311 12.7629 25.3113 12.745 25.3116 12.7158C25.3351 11.8707 26.0527 11.1904 26.9315 11.1904C27.825 11.1904 28.552 11.8939 28.552 12.7587C28.552 13.0097 28.7618 13.2132 29.0207 13.2132C29.2796 13.2132 29.4895 13.0097 29.4895 12.7587C29.4895 9.92461 28.0973 7.03327 25.6698 4.82594C23.2658 2.64 20.1867 1.39097 16.954 1.28067V0.515092C16.954 0.264062 16.7442 0.0605469 16.4853 0.0605469C16.2263 0.0605469 16.0165 0.264062 16.0165 0.515092V1.28067C12.7838 1.39097 9.7047 2.64 7.3007 4.82594C4.87327 7.03321 3.48108 9.92461 3.48108 12.7587C3.48108 13.0097 3.69089 13.2132 3.94983 13.2132C4.20877 13.2132 4.41858 13.0097 4.41858 12.7587C4.41858 11.8939 5.14552 11.1904 6.03908 11.1904C6.93264 11.1904 7.65958 11.8939 7.65958 12.7587C7.65958 13.0097 7.86939 13.2132 8.12833 13.2132C8.38727 13.2132 8.59708 13.0097 8.59708 12.7587C8.59708 11.8939 9.32408 11.1904 10.2176 11.1904C11.0821 11.1904 11.7905 11.8488 11.8358 12.6747C11.8368 12.7204 11.8378 12.7524 11.8383 12.7692C11.844 13.0153 12.0516 13.2132 12.3069 13.2132C12.5658 13.2132 12.7756 13.0097 12.7756 12.7587C12.7756 11.8939 13.5026 11.1904 14.3961 11.1904C15.2897 11.1904 16.0166 11.8939 16.0166 12.7587V19.6605H14.4493C14.1903 19.6605 13.9805 19.8641 13.9805 20.1151C13.9805 20.3661 14.1903 20.5696 14.4493 20.5696H24.9515C25.0295 20.5696 25.0928 20.6307 25.0928 20.7058C25.0928 21.132 24.7344 21.4787 24.2938 21.4787H8.67677C8.2362 21.4787 7.87777 21.132 7.87777 20.7058C7.87777 20.6307 7.94114 20.5696 8.01908 20.5696H12.2641C12.5231 20.5696 12.7329 20.3661 12.7329 20.1151C12.7329 19.8641 12.5231 19.6605 12.2641 19.6605H8.01908C7.4242 19.6605 6.94027 20.1294 6.94027 20.7058C6.94027 21.6333 7.71927 22.3878 8.67677 22.3878H10.3817L15.707 26.2848L10.2564 30.2735C10.0497 30.4247 10.0086 30.7097 10.1646 30.9101C10.2568 31.0285 10.3971 31.0909 10.5391 31.0909C10.6374 31.0909 10.7365 31.061 10.8211 30.9991L16.0165 27.1972V30.1818H14.9203C14.6614 30.1818 14.4516 30.3853 14.4516 30.6363C14.4516 30.8873 14.6614 31.0909 14.9203 31.0909H18.0501C18.309 31.0909 18.5188 30.8873 18.5188 30.6363C18.5188 30.3853 18.309 30.1818 18.0501 30.1818H16.9539V27.1973L22.1493 30.9992C22.2338 31.061 22.3329 31.0909 22.4313 31.0909C22.5733 31.0909 22.7137 31.0285 22.8058 30.9101C22.9617 30.7097 22.9206 30.4247 22.714 30.2735ZM25.0284 5.48909C26.6589 6.9717 27.783 8.77958 28.2737 10.6505C27.8833 10.4165 27.4233 10.2813 26.9314 10.2813C26.2675 10.2813 25.6618 10.5276 25.2066 10.9307C25.1551 10.4664 25.0786 9.93691 24.9653 9.3694C24.3501 6.2894 23.1247 4.50109 22.1733 3.52776C23.2002 4.04327 24.1614 4.70073 25.0284 5.48909ZM21.4182 4.07794C23.3075 5.9483 23.9904 8.82103 24.2364 10.7415C23.8177 10.4519 23.3055 10.2813 22.7529 10.2813C22.1291 10.2813 21.5568 10.4987 21.1123 10.8593C21.0163 8.50588 20.6088 4.58794 19.0165 2.58158C19.9263 2.8963 20.7293 3.396 21.4182 4.07794ZM16.9539 2.23315C17.3438 2.32212 17.6964 2.52727 18.0226 2.85327C19.6415 4.47158 20.0642 8.43243 20.1683 10.8224C19.7308 10.4839 19.1766 10.2812 18.5744 10.2812C17.96 10.2812 17.3955 10.4921 16.9539 10.8432V2.23315ZM11.858 10.8593C11.4136 10.4987 10.8413 10.2813 10.2175 10.2813C9.66358 10.2813 9.15027 10.4527 8.73102 10.7435C8.82433 10.0078 8.9817 9.13285 9.24689 8.23006C9.31783 7.98861 9.17345 7.73715 8.92452 7.66837C8.67583 7.59958 8.41614 7.73952 8.34527 7.98103C8.02633 9.06679 7.85483 10.1018 7.76302 10.9301C7.30795 10.5273 6.70258 10.2812 6.03895 10.2812C5.54702 10.2812 5.08708 10.4164 4.69664 10.6505C5.18733 8.77958 6.31145 6.97164 7.94195 5.48903C8.80914 4.70049 9.77052 4.04297 10.7977 3.52733C10.1167 4.22297 9.53589 5.07533 9.06383 6.07352C8.95589 6.3017 9.0592 6.57152 9.29452 6.67618C9.35783 6.7043 9.4242 6.7177 9.48958 6.7177C9.6672 6.7177 9.83714 6.61927 9.91595 6.45255C10.8483 4.48121 12.2016 3.18588 13.9552 2.58C12.3618 4.58582 11.954 8.50521 11.858 10.8593ZM16.0164 10.8432C15.5749 10.4922 15.0103 10.2812 14.3959 10.2812C13.7937 10.2812 13.2395 10.4838 12.802 10.8224C12.9061 8.43243 13.3288 4.47158 14.9477 2.85327C15.2739 2.52727 15.6265 2.32212 16.0164 2.23315V10.8432ZM16.0164 25.3723L11.938 22.3878H16.0164V25.3723ZM16.9539 22.3878H21.0323L16.9539 25.3723V22.3878Z" fill="#272B34"/>
<path d="M8.05721 23.5998H2.3269L1.43471 15.895C1.40578 15.6456 1.17384 15.4662 0.916589 15.4941C0.659339 15.5221 0.474214 15.747 0.503089 15.9965L1.43915 24.0798V30.6362C1.43915 30.8872 1.64896 31.0907 1.9079 31.0907C2.16684 31.0907 2.37665 30.8872 2.37665 30.6362V26.3271H8.19215V30.6362C8.19215 30.8872 8.40196 31.0907 8.6609 31.0907C8.91984 31.0907 9.12965 30.8872 9.12965 30.6362L9.13515 24.645C9.13509 24.0687 8.65153 23.5998 8.05721 23.5998ZM8.19759 25.418H2.37659V24.5089H8.05715C8.13453 24.5089 8.19753 24.57 8.19753 24.645V25.418H8.19759Z" fill="#272B34"/>
<path d="M32.0837 15.4943C31.8262 15.4665 31.5945 15.6458 31.5656 15.8953L30.6734 23.6001H28.7727C28.5137 23.6001 28.3039 23.8036 28.3039 24.0546C28.3039 24.3056 28.5137 24.5091 28.7727 24.5091H30.6237V25.4182H24.8027V24.6453C24.8027 24.5702 24.8662 24.5091 24.944 24.5091H26.5724C26.8313 24.5091 27.0411 24.3056 27.0411 24.0546C27.0411 23.8036 26.8313 23.6001 26.5724 23.6001H24.944C24.3492 23.6001 23.8652 24.0689 23.8652 24.6453L23.8707 30.6364C23.8707 30.8875 24.0805 31.091 24.3395 31.091C24.5984 31.091 24.8082 30.8875 24.8082 30.6364V26.3273H30.6237V30.6364C30.6237 30.8875 30.8335 31.091 31.0925 31.091C31.3514 31.091 31.5612 30.8875 31.5612 30.6364V24.08L32.4972 15.9967C32.5261 15.7473 32.341 15.5223 32.0837 15.4943Z" fill="#272B34"/>
</g>
<defs>
<clipPath id="clip0_435:38">
<rect width="32" height="31.0303" fill="white" transform="translate(0.5 0.0605469)"/>
</clipPath>
</defs>
</svg>
