<svg width="33" height="27" viewBox="0 0 33 27" fill="none" xmlns="http://www.w3.org/2000/svg">
<path d="M32.0841 26.2237H0.915945C0.686177 26.2237 0.5 26.0432 0.5 25.8204V24.0994C0.5 23.8766 0.686177 23.696 0.915945 23.696H1.42207V12.6177H0.915945C0.686177 12.6177 0.5 12.4372 0.5 12.2144C0.5 11.9916 0.686177 11.811 0.915945 11.811H9.18943V1.27028C9.18943 1.04748 9.37561 0.866943 9.60538 0.866943H23.2868C23.5166 0.866943 23.7028 1.04748 23.7028 1.27028V11.8109H32.0841C32.3138 11.8109 32.5 11.9914 32.5 12.2142C32.5 12.437 32.3138 12.6176 32.0841 12.6176H31.5919V23.696H32.0841C32.3138 23.696 32.5 23.8766 32.5 24.0994V25.8204C32.5 26.0432 32.3138 26.2237 32.0841 26.2237ZM1.33189 25.417H31.6681V24.5027H1.33189V25.417ZM29.3458 23.696H30.76V12.6177H29.3458V23.696ZM26.5851 23.696H28.5139V12.6177H26.5851V23.696ZM23.8244 23.696H25.7532V12.6177H23.8244V23.696ZM21.0638 23.696H22.8709V12.6177H21.0638V23.696ZM18.3031 23.696H20.2319V12.6177H18.3031V23.696ZM15.5426 23.696H17.4712V12.6177H15.5426V23.696ZM12.7819 23.696H14.7107V12.6177H12.7819V23.696ZM10.0213 23.696H11.9501V12.6177H10.0213V23.696ZM7.26061 23.696H9.18926V12.6177H7.26061V23.696ZM4.50006 23.696H6.42888V12.6177H4.50006V23.696ZM2.25396 23.696H3.66817V12.6177H2.25396V23.696V23.696ZM21.9089 11.811H22.8709V1.67363H10.0213V11.8109H10.9835V3.01804C10.9835 2.79524 11.1697 2.6147 11.3994 2.6147H15.6699C15.8996 2.6147 16.0858 2.79524 16.0858 3.01804V11.8109H16.8067V3.01804C16.8067 2.79524 16.9929 2.6147 17.2227 2.6147H21.4931C21.7229 2.6147 21.909 2.79524 21.909 3.01804V11.811H21.9089ZM17.6384 11.8064H21.077V3.42154H17.6384V11.8064ZM11.8152 11.8064H15.2537V3.42154H11.8152V11.8064Z" fill="#272B34"/>
</svg>
