<svg width="36" height="37" viewBox="0 0 36 37" fill="none" xmlns="http://www.w3.org/2000/svg">
<path d="M22.3143 7.54919H13.6856C10.4143 7.54919 7.76245 10.2011 7.76245 13.4723V22.9842C7.76245 26.2554 10.4143 28.9073 13.6856 28.9073H22.3143C25.5856 28.9073 28.2374 26.2554 28.2374 22.9842V13.4723C28.2374 10.2011 25.5856 7.54919 22.3143 7.54919Z" stroke="#272B34" stroke-linecap="round"/>
<path d="M18 23.4455C20.883 23.4455 23.22 21.1084 23.22 18.2255C23.22 15.3426 20.883 13.0055 18 13.0055C15.1171 13.0055 12.78 15.3426 12.78 18.2255C12.78 21.1084 15.1171 23.4455 18 23.4455Z" stroke="#272B34" stroke-linecap="round"/>
<path d="M24.2493 12.0717C24.6594 12.0717 24.9918 11.7392 24.9918 11.3292C24.9918 10.9191 24.6594 10.5867 24.2493 10.5867C23.8393 10.5867 23.5068 10.9191 23.5068 11.3292C23.5068 11.7392 23.8393 12.0717 24.2493 12.0717Z" stroke="#272B34"/>
</svg>
