<svg width="24" height="25" viewBox="0 0 24 25" fill="none" xmlns="http://www.w3.org/2000/svg">
<path d="M14.8763 5.6571H9.1238C6.94296 5.6571 5.17505 7.42502 5.17505 9.60585V15.9471C5.17505 18.1279 6.94296 19.8959 9.1238 19.8959H14.8763C17.0571 19.8959 18.825 18.1279 18.825 15.9471V9.60585C18.825 7.42502 17.0571 5.6571 14.8763 5.6571Z" stroke="#E5E5E5" stroke-linecap="round"/>
<path d="M12 16.2545C13.922 16.2545 15.48 14.6964 15.48 12.7745C15.48 10.8525 13.922 9.29449 12 9.29449C10.0781 9.29449 8.52002 10.8525 8.52002 12.7745C8.52002 14.6964 10.0781 16.2545 12 16.2545Z" stroke="#E5E5E5" stroke-linecap="round"/>
<path d="M16.1661 8.67207C16.4395 8.67207 16.6611 8.45045 16.6611 8.17707C16.6611 7.90369 16.4395 7.68207 16.1661 7.68207C15.8928 7.68207 15.6711 7.90369 15.6711 8.17707C15.6711 8.45045 15.8928 8.67207 16.1661 8.67207Z" stroke="#E5E5E5"/>
</svg>
