<svg width="32" height="32" viewBox="0 0 32 32" fill="none" xmlns="http://www.w3.org/2000/svg">
<g clip-path="url(#clip0_435:12)">
<path d="M31.4667 6.20605H21.8667C21.5721 6.20605 21.3333 6.43762 21.3333 6.72323V18.6182H9.6V17.0667C9.6 16.7811 9.3612 16.5495 9.06667 16.5495H7.46667V17.5838H8.53333V18.6182H6.4V16.5495H5.33333V18.6182H3.2V17.5838H4.26667V16.5495H2.66667C2.37214 16.5495 2.13333 16.7811 2.13333 17.0667V18.6182H0.533333C0.238802 18.6182 0 18.8497 0 19.1354V30.5131C0 30.7987 0.238802 31.0303 0.533333 31.0303H31.4667C31.7612 31.0303 32 30.7987 32 30.5131V6.72323C32 6.43762 31.7612 6.20605 31.4667 6.20605ZM22.4 7.2404H30.9333V13.4465H22.4V7.2404ZM21.3333 21.7212H11.7333V19.6525H21.3333V21.7212ZM1.06667 19.6525H10.6667V21.7212H1.06667V19.6525ZM1.06667 22.7556H10.6667V29.996H1.06667V22.7556ZM11.7333 22.7556H16V29.996H11.7333V22.7556ZM17.0667 22.7556H21.3333V29.996H17.0667V22.7556ZM22.4 29.996V14.4808H30.9333V29.996H22.4Z" fill="#272B34"/>
<path d="M23.4667 9.30908H24.5333V11.3778H23.4667V9.30908Z" fill="#272B34"/>
<path d="M23.4667 16.5496H24.5333V18.6182H23.4667V16.5496Z" fill="#272B34"/>
<path d="M3.19997 20.6869C3.19997 20.9725 2.96117 21.204 2.66663 21.204C2.3721 21.204 2.1333 20.9725 2.1333 20.6869C2.1333 20.4012 2.3721 20.1697 2.66663 20.1697C2.96117 20.1697 3.19997 20.4012 3.19997 20.6869Z" fill="#272B34"/>
<path d="M5.33339 20.6869C5.33339 20.9725 5.09459 21.204 4.80006 21.204C4.50553 21.204 4.26672 20.9725 4.26672 20.6869C4.26672 20.4012 4.50553 20.1697 4.80006 20.1697C5.09459 20.1697 5.33339 20.4012 5.33339 20.6869Z" fill="#272B34"/>
<path d="M7.46669 20.6869C7.46669 20.9725 7.22789 21.204 6.93336 21.204C6.63883 21.204 6.40002 20.9725 6.40002 20.6869C6.40002 20.4012 6.63883 20.1697 6.93336 20.1697C7.22789 20.1697 7.46669 20.4012 7.46669 20.6869Z" fill="#272B34"/>
<path d="M9.59999 20.6869C9.59999 20.9725 9.36119 21.204 9.06666 21.204C8.77213 21.204 8.53333 20.9725 8.53333 20.6869C8.53333 20.4012 8.77213 20.1697 9.06666 20.1697C9.36119 20.1697 9.59999 20.4012 9.59999 20.6869Z" fill="#272B34"/>
<path d="M0.533333 9.82626H11.2C11.4945 9.82626 11.7333 9.5947 11.7333 9.30909V7.75758C11.7333 7.62046 11.6771 7.48889 11.5771 7.39192L9.44375 5.32323C9.34375 5.22626 9.20807 5.17172 9.06667 5.17172H8.53333V0.517172C8.53333 0.231566 8.29453 0 8 0H3.73333C3.4388 0 3.2 0.231566 3.2 0.517172V5.17172H2.66667C2.52526 5.17172 2.38958 5.22626 2.28958 5.32323L0.15625 7.39192C0.05625 7.48889 0 7.62046 0 7.75758V9.30909C0 9.5947 0.238802 9.82626 0.533333 9.82626ZM4.26667 1.03434H7.46667V5.17172H4.26667V1.03434ZM1.06667 7.97172L2.8875 6.20606H8.84583L10.6667 7.97172V8.79192H1.06667V7.97172Z" fill="#272B34"/>
<path d="M9.06664 23.7898H2.66663C2.3721 23.7898 2.1333 24.0214 2.1333 24.307V28.4443C2.1333 28.7299 2.3721 28.9615 2.66663 28.9615H9.06664C9.36117 28.9615 9.59997 28.7299 9.59997 28.4443V24.307C9.59997 24.0214 9.36117 23.7898 9.06664 23.7898ZM8.5333 27.9272H3.19997V24.8241H8.5333V27.9272Z" fill="#272B34"/>
<path d="M15.4667 20.1697H17.6V21.204H15.4667V20.1697Z" fill="#272B34"/>
<path d="M13.8667 25.3413H14.9334V27.41H13.8667V25.3413Z" fill="#272B34"/>
<path d="M18.1333 25.3413H19.2V27.41H18.1333V25.3413Z" fill="#272B34"/>
<path d="M12.7999 12.9293H15.9999C16.2945 12.9293 16.5333 12.6977 16.5333 12.4121V11.895C16.5296 10.9545 15.8723 10.1349 14.9333 9.89975V0H13.8666V9.89975C12.9275 10.1349 12.2702 10.9545 12.2666 11.895V12.4121C12.2666 12.6977 12.5054 12.9293 12.7999 12.9293ZM14.3999 10.8606C14.989 10.8606 15.4666 11.3237 15.4666 11.895H13.3333C13.3333 11.3237 13.8109 10.8606 14.3999 10.8606Z" fill="#272B34"/>
<path d="M16.5333 8.79192H19.7333C20.0279 8.79192 20.2667 8.56035 20.2667 8.27475V7.75758C20.263 6.81717 19.6057 5.99748 18.6667 5.76237V0H17.6V5.76237C16.6609 5.99748 16.0036 6.81717 16 7.75758V8.27475C16 8.56035 16.2388 8.79192 16.5333 8.79192ZM18.1333 6.72323C18.7224 6.72323 19.2 7.18636 19.2 7.75758H17.0667C17.0667 7.18636 17.5443 6.72323 18.1333 6.72323Z" fill="#272B34"/>
</g>
<defs>
<clipPath id="clip0_435:12">
<rect width="32" height="31.0303" fill="white"/>
</clipPath>
</defs>
</svg>
