<svg width="32" height="32" viewBox="0 0 32 32" fill="none" xmlns="http://www.w3.org/2000/svg">
<g clip-path="url(#clip0_435:30)">
<path d="M10.2259 10.4268L7.64068 8.99404C8.50176 8.36384 9.05962 7.36336 9.05962 6.23884C9.05962 4.3359 7.46318 2.78784 5.50078 2.78784C3.53862 2.78784 1.94219 4.3359 1.94219 6.23884C1.94219 7.3636 2.50029 8.36407 3.36162 8.99452L0.776173 10.4292C0.286671 10.7014 -0.0106921 11.2102 0.000294238 11.7594L0.0198255 12.5707C0.0278821 12.9055 0.314015 13.1699 0.65923 13.1626C1.00444 13.1548 1.27764 12.8771 1.26958 12.5426L1.25005 11.7334C1.24761 11.6091 1.325 11.5213 1.39751 11.481L4.55571 9.72842C4.60112 9.70309 4.6502 9.6903 4.70244 9.6903H4.70269L6.29937 9.68959C6.35674 9.68959 6.40996 9.70451 6.45757 9.73386C6.46563 9.73884 6.47393 9.74357 6.48247 9.74831L9.60552 11.4789C9.70684 11.535 9.7647 11.6441 9.75298 11.7568C9.75152 11.7722 9.75029 11.7876 9.75005 11.803L9.52837 20.9997C9.52544 21.137 9.42705 21.2308 9.33062 21.263C9.32573 21.2646 9.32061 21.2663 9.31572 21.2682L7.52837 21.9136C7.28423 22.0019 7.12212 22.2277 7.12163 22.4803L7.11309 26.7426C7.11309 26.8991 6.98174 27.0267 6.81939 27.0267L4.18145 27.03C4.01812 27.03 3.88506 26.9012 3.88506 26.7426C3.88506 25.5127 3.88359 24.1586 3.88018 22.4805C3.87969 22.2277 3.71758 22.0019 3.47344 21.9138L1.66436 21.2604C1.5335 21.213 1.47417 21.0937 1.47344 20.9962C1.47344 20.9931 1.47319 20.9898 1.47319 20.9867L1.38652 17.3896C1.37847 17.0549 1.09063 16.7902 0.74712 16.7978C0.401906 16.8056 0.128712 17.0833 0.136769 17.4178L0.223439 21.0111C0.231007 21.6254 0.634083 22.1815 1.22808 22.3963L2.63115 22.9029C2.63384 24.3889 2.63506 25.6179 2.63506 26.7426C2.63506 27.5696 3.32891 28.2421 4.18242 28.2421L6.82012 28.2386C7.67095 28.2386 8.36309 27.5674 8.36309 26.7438L8.37066 22.9029L9.74541 22.4064C10.3509 22.2007 10.7654 21.646 10.7779 21.0258L10.9993 11.8518C11.0484 11.2729 10.7471 10.7159 10.2259 10.4268ZM5.50103 3.99996C6.77398 3.99996 7.80962 5.00422 7.80962 6.23884C7.80962 7.47321 6.77398 8.47747 5.50103 8.47747C4.22783 8.47747 3.19219 7.47321 3.19219 6.23884C3.19219 5.00446 4.22783 3.99996 5.50103 3.99996Z" fill="#272B34"/>
<path d="M31.9563 20.272L31.78 19.5651C31.699 19.2396 31.3613 19.0397 31.0256 19.1183C30.6902 19.1969 30.4839 19.5246 30.5652 19.8499L30.7415 20.557C30.7783 20.7045 30.6897 20.8537 30.54 20.8965C30.5308 20.8991 30.5215 20.902 30.5122 20.905L27.4783 21.9237C27.2271 22.0083 27.0584 22.2374 27.0579 22.4952L27.0493 26.7426C27.0493 26.8994 26.918 27.0267 26.7556 27.0267L24.1179 27.0303C24.0046 27.0303 23.9331 26.9725 23.9006 26.9382C23.8674 26.9031 23.8132 26.8279 23.8228 26.7164C23.8242 26.6991 23.825 26.6818 23.825 26.6645L23.8167 22.4952C23.8162 22.2374 23.6475 22.0083 23.3963 21.9237L20.323 20.8918C20.1819 20.8447 20.0989 20.6981 20.134 20.557L22.4441 11.2905C22.4649 11.2081 22.5151 11.1576 22.554 11.1292L24.4622 9.74737C24.5271 9.70026 24.5935 9.69031 24.6387 9.69031H24.6392L26.2358 9.6896C26.3223 9.6896 26.3848 9.72417 26.4216 9.75329C26.428 9.75826 26.4346 9.76299 26.4409 9.76773L28.3223 11.1276C28.3835 11.1721 28.4243 11.2367 28.437 11.3099C28.4395 11.3241 28.4424 11.3383 28.446 11.3522L29.3899 15.1373C29.471 15.4626 29.8084 15.6626 30.1443 15.584C30.4797 15.5052 30.686 15.1778 30.605 14.8525L29.6655 11.0857C29.5947 10.713 29.384 10.3837 29.0696 10.156L27.519 9.03525C28.4131 8.40764 28.9961 7.38823 28.9961 6.23884C28.9961 4.33591 27.3997 2.78809 25.4375 2.78809C23.4754 2.78809 21.8789 4.33591 21.8789 6.23884C21.8789 7.38846 22.4622 8.40788 23.3565 9.03548L21.8067 10.1579C21.5191 10.3662 21.314 10.6671 21.2295 11.0057L18.9197 20.2715C18.7305 21.0255 19.159 21.785 19.9153 22.0376L22.5679 22.9285L22.5752 26.6441C22.5481 27.0528 22.6951 27.4574 22.9807 27.7585C23.2722 28.066 23.6868 28.2424 24.1192 28.2424L26.7568 28.2388C27.6074 28.2388 28.2998 27.5677 28.2998 26.7438L28.3074 22.9282L30.9097 22.0544C31.6892 21.8227 32.1487 21.0431 31.9563 20.272ZM25.4373 3.99997C26.7102 3.99997 27.7459 5.00423 27.7459 6.23884C27.7459 7.47322 26.7102 8.47748 25.4373 8.47748C24.1643 8.47748 23.1287 7.47322 23.1287 6.23884C23.1287 5.00423 24.1643 3.99997 25.4373 3.99997Z" fill="#272B34"/>
<path d="M15.0154 0C13.9814 0 13.1404 0.815578 13.1404 1.81818V29.2119C13.1404 30.2145 13.9814 31.0301 15.0154 31.0301C16.0493 31.0301 16.8904 30.2145 16.8904 29.2119V1.81818C16.8904 0.815578 16.0493 0 15.0154 0ZM15.6404 29.2121C15.6404 29.5462 15.3601 29.8182 15.0154 29.8182C14.6709 29.8182 14.3904 29.5462 14.3904 29.2121V1.81818C14.3904 1.4839 14.6709 1.21212 15.0154 1.21212C15.3601 1.21212 15.6404 1.4839 15.6404 1.81818V29.2121Z" fill="#272B34"/>
<path d="M0.703125 15.5864C1.04834 15.5864 1.32812 15.3151 1.32812 14.9803V14.9798C1.32812 14.6453 1.04834 14.374 0.703125 14.374C0.35791 14.374 0.078125 14.6456 0.078125 14.9803C0.078125 15.3151 0.35791 15.5864 0.703125 15.5864Z" fill="#272B34"/>
<path d="M30.4131 16.7686C30.0813 16.8604 29.8892 17.1961 29.9839 17.5181C30.0625 17.7842 30.3127 17.9577 30.5847 17.9577C30.6413 17.9577 30.6992 17.9502 30.7566 17.9343C31.0886 17.8422 31.2807 17.5067 31.1858 17.185V17.1845C31.0908 16.8628 30.7449 16.6767 30.4131 16.7686Z" fill="#272B34"/>
</g>
<defs>
<clipPath id="clip0_435:30">
<rect width="32" height="31.0303" fill="white"/>
</clipPath>
</defs>
</svg>
