<svg width="87" height="45" viewBox="0 0 87 45" fill="none" xmlns="http://www.w3.org/2000/svg">
<path d="M3.892 17.3295V24.8615H10.528V26.4575H3.892V35.3335H2.156V15.7335H11.004V17.3295H3.892ZM13.6058 20.6335H15.2578V35.3335H13.6058V20.6335ZM14.4178 17.9175C14.0071 17.9175 13.6805 17.7962 13.4378 17.5535C13.1951 17.3108 13.0738 16.9842 13.0738 16.5735C13.0738 16.1628 13.1951 15.8362 13.4378 15.5935C13.6805 15.3508 14.0071 15.2295 14.4178 15.2295C14.8285 15.2295 15.1551 15.3508 15.3978 15.5935C15.6405 15.8362 15.7618 16.1628 15.7618 16.5735C15.7618 16.9842 15.6405 17.3108 15.3978 17.5535C15.1551 17.7962 14.8285 17.9175 14.4178 17.9175ZM19.0492 15.0895H20.7012V35.3335H19.0492V15.0895ZM35.2406 15.7335V35.3335H33.5046V26.1775H26.5326V35.3335H24.7966V15.7335H26.5326V24.5535H33.5046V15.7335H35.2406ZM43.7903 35.6695C42.2969 35.6695 41.1023 35.2122 40.2063 34.2975C39.3289 33.3642 38.8903 32.0482 38.8903 30.3495V25.6175C38.8903 23.9188 39.3289 22.6122 40.2063 21.6975C41.1023 20.7642 42.2969 20.2975 43.7903 20.2975C45.2836 20.2975 46.4689 20.7642 47.3463 21.6975C48.2423 22.6122 48.6903 23.9188 48.6903 25.6175V30.3495C48.6903 32.0482 48.2423 33.3642 47.3463 34.2975C46.4689 35.2122 45.2836 35.6695 43.7903 35.6695ZM43.7903 34.0455C44.8169 34.0455 45.6103 33.7468 46.1703 33.1495C46.7303 32.5335 47.0103 31.6002 47.0103 30.3495V25.6175C47.0103 24.3668 46.7303 23.4428 46.1703 22.8455C45.6103 22.2295 44.8169 21.9215 43.7903 21.9215C42.7636 21.9215 41.9703 22.2295 41.4103 22.8455C40.8503 23.4428 40.5703 24.3668 40.5703 25.6175V30.3495C40.5703 31.6002 40.8503 32.5335 41.4103 33.1495C41.9703 33.7468 42.7636 34.0455 43.7903 34.0455ZM61.2638 20.6335V35.3335H59.8918L59.6118 33.5135C59.2198 34.2042 58.7064 34.7362 58.0718 35.1095C57.4371 35.4828 56.6811 35.6695 55.8038 35.6695C54.5531 35.6695 53.5824 35.2215 52.8918 34.3255C52.2011 33.4108 51.8558 31.9828 51.8558 30.0415V20.6335H53.5078V29.7895C53.5078 31.2828 53.7224 32.3748 54.1518 33.0655C54.5811 33.7562 55.2718 34.1015 56.2238 34.1015C57.2504 34.1015 58.0718 33.7002 58.6878 32.8975C59.3038 32.0762 59.6118 30.9562 59.6118 29.5375V20.6335H61.2638ZM68.8494 35.6695C67.3934 35.6695 66.2174 35.2402 65.3214 34.3815C64.4254 33.5228 63.9774 32.3842 63.9774 30.9655H65.6294C65.6294 31.9362 65.9094 32.6922 66.4694 33.2335C67.048 33.7748 67.8414 34.0455 68.8494 34.0455C69.764 34.0455 70.4734 33.8308 70.9774 33.4015C71.4814 32.9535 71.7334 32.3375 71.7334 31.5535C71.7334 31.0308 71.584 30.6015 71.2854 30.2655C71.0054 29.9108 70.6507 29.6308 70.2214 29.4255C69.8107 29.2015 69.2134 28.9402 68.4294 28.6415C67.496 28.2682 66.7494 27.9322 66.1894 27.6335C65.6294 27.3162 65.1534 26.8868 64.7614 26.3455C64.3694 25.8042 64.1734 25.1042 64.1734 24.2455C64.1734 23.0508 64.5747 22.0988 65.3774 21.3895C66.1987 20.6615 67.272 20.2975 68.5974 20.2975C69.9787 20.2975 71.08 20.7082 71.9014 21.5295C72.7414 22.3508 73.1614 23.4428 73.1614 24.8055H71.5094C71.5094 23.8908 71.248 23.1815 70.7254 22.6775C70.2214 22.1548 69.512 21.8935 68.5974 21.8935C67.7387 21.8935 67.0667 22.1082 66.5814 22.5375C66.096 22.9482 65.8534 23.5362 65.8534 24.3015C65.8534 24.9922 66.1147 25.5242 66.6374 25.8975C67.16 26.2708 67.9627 26.6628 69.0454 27.0735C69.9974 27.4468 70.7534 27.7922 71.3134 28.1095C71.892 28.4268 72.3867 28.8748 72.7974 29.4535C73.208 30.0135 73.4134 30.7322 73.4134 31.6095C73.4134 32.8228 72.9934 33.8028 72.1534 34.5495C71.3134 35.2962 70.212 35.6695 68.8494 35.6695ZM85.603 30.8255C85.491 32.3748 85.0057 33.5602 84.147 34.3815C83.2883 35.2028 82.103 35.6135 80.591 35.6135C79.135 35.6135 77.9777 35.1562 77.119 34.2415C76.279 33.3268 75.859 32.0388 75.859 30.3775V25.5335C75.859 23.8722 76.2883 22.5842 77.147 21.6695C78.0243 20.7548 79.2003 20.2975 80.675 20.2975C82.1683 20.2975 83.3537 20.7548 84.231 21.6695C85.127 22.5842 85.575 23.8722 85.575 25.5335V28.7815H77.539V30.3775C77.539 31.5908 77.8097 32.4962 78.351 33.0935C78.8923 33.6908 79.6577 33.9895 80.647 33.9895C81.6737 33.9895 82.4483 33.7375 82.971 33.2335C83.5123 32.7108 83.839 31.9082 83.951 30.8255H85.603ZM80.703 21.9215C79.695 21.9215 78.911 22.2202 78.351 22.8175C77.8097 23.4148 77.539 24.3202 77.539 25.5335V27.2415H83.923V25.5335C83.923 24.3202 83.643 23.4148 83.083 22.8175C82.523 22.2202 81.7297 21.9215 80.703 21.9215Z" fill="#E5E5E5"/>
<line x1="20.285" y1="12.4937" x2="31.4268" y2="1.84141" stroke="#5DAC19" stroke-width="2"/>
<line x1="29.9903" y1="1.8571" x2="43.5291" y2="15.3959" stroke="#5DAC19" stroke-width="2"/>
</svg>
