<svg width="88" height="45" fill="none" xmlns="http://www.w3.org/2000/svg"><path d="M4.392 16.78v7.532h6.636v1.596H4.392v8.876H2.656v-19.6h8.848v1.596H4.392zm9.714 3.304h1.652v14.7h-1.652v-14.7zm.812-2.716c-.41 0-.737-.12-.98-.364-.243-.242-.364-.569-.364-.98 0-.41.121-.737.364-.98.242-.242.57-.364.98-.364.41 0 .737.122.98.364.242.243.364.57.364.98 0 .411-.122.738-.364.98-.243.243-.57.364-.98.364zm4.631-2.828h1.652v20.244H19.55V14.54zm16.192.644v19.6h-1.736v-9.156h-6.972v9.156h-1.736v-19.6h1.736v8.82h6.972v-8.82h1.736zm8.55 19.936c-1.494 0-2.689-.457-3.585-1.372-.877-.933-1.316-2.249-1.316-3.948v-4.732c0-1.698.439-3.005 1.316-3.92.896-.933 2.09-1.4 3.584-1.4 1.494 0 2.679.467 3.556 1.4.896.915 1.344 2.222 1.344 3.92V29.8c0 1.7-.448 3.015-1.344 3.948-.877.915-2.062 1.372-3.556 1.372zm0-1.624c1.026 0 1.82-.298 2.38-.896.56-.616.84-1.549.84-2.8v-4.732c0-1.25-.28-2.174-.84-2.772-.56-.616-1.354-.924-2.38-.924-1.027 0-1.82.308-2.38.924-.56.598-.84 1.522-.84 2.772V29.8c0 1.251.28 2.184.84 2.8.56.598 1.353.896 2.38.896zm17.473-13.412v14.7h-1.372l-.28-1.82c-.392.691-.906 1.223-1.54 1.596-.635.374-1.39.56-2.268.56-1.25 0-2.222-.448-2.912-1.344-.69-.914-1.036-2.342-1.036-4.284v-9.408h1.652v9.156c0 1.494.214 2.586.644 3.276.43.691 1.12 1.036 2.072 1.036 1.026 0 1.848-.4 2.464-1.204.616-.82.924-1.94.924-3.36v-8.904h1.652zm7.585 15.036c-1.456 0-2.632-.429-3.528-1.288-.896-.858-1.344-1.997-1.344-3.416h1.652c0 .971.28 1.727.84 2.268.579.542 1.372.812 2.38.812.915 0 1.624-.214 2.128-.644.504-.448.756-1.064.756-1.848 0-.522-.149-.952-.448-1.288a2.961 2.961 0 00-1.064-.84c-.41-.224-1.008-.485-1.792-.784-.933-.373-1.68-.709-2.24-1.008a4.471 4.471 0 01-1.428-1.288c-.392-.54-.588-1.24-.588-2.1 0-1.194.402-2.146 1.204-2.856.822-.728 1.895-1.092 3.22-1.092 1.382 0 2.483.411 3.304 1.232.84.822 1.26 1.914 1.26 3.276H72.01c0-.914-.261-1.624-.784-2.128-.504-.522-1.213-.784-2.128-.784-.858 0-1.53.215-2.016.644-.485.411-.728 1-.728 1.764 0 .691.262 1.223.784 1.596.523.374 1.326.766 2.408 1.176.952.374 1.708.72 2.268 1.036a4.418 4.418 0 011.484 1.344c.411.56.616 1.28.616 2.156 0 1.214-.42 2.194-1.26 2.94-.84.747-1.941 1.12-3.304 1.12zm16.754-4.844c-.112 1.55-.597 2.735-1.456 3.556-.859.822-2.044 1.232-3.556 1.232-1.456 0-2.613-.457-3.472-1.372-.84-.914-1.26-2.202-1.26-3.864v-4.844c0-1.66.43-2.949 1.288-3.864.877-.914 2.053-1.372 3.528-1.372 1.493 0 2.679.458 3.556 1.372.896.915 1.344 2.203 1.344 3.864v3.248h-8.036v1.596c0 1.214.27 2.12.812 2.716.541.598 1.307.896 2.296.896 1.027 0 1.801-.252 2.324-.756.541-.522.868-1.325.98-2.408h1.652zm-4.9-8.904c-1.008 0-1.792.3-2.352.896-.541.598-.812 1.503-.812 2.716v1.708h6.384v-1.708c0-1.213-.28-2.118-.84-2.716-.56-.597-1.353-.896-2.38-.896z" fill="#272B34"/><path stroke="#5DAC19" stroke-width="2" d="M20.785 11.945L31.927 1.292m-1.437.016l13.539 13.539"/></svg>