<svg width="32" height="33" viewBox="0 0 32 33" fill="none" xmlns="http://www.w3.org/2000/svg">
<path d="M5.55484 4.42594C5.37968 4.43163 5.20745 4.47241 5.04834 4.54585C4.88922 4.6193 4.74646 4.72392 4.62851 4.85353C4.51055 4.98314 4.4198 5.1351 4.36163 5.30041C4.30346 5.46573 4.27905 5.64103 4.28984 5.81594C4.46484 8.81594 5.28984 16.1359 9.23984 20.7009C13.9698 26.2009 20.1298 28.0959 26.4498 27.8159C26.7886 27.7957 27.1071 27.6477 27.3409 27.4017C27.5748 27.1558 27.7066 26.8303 27.7098 26.4909L27.7098 21.6859C27.7059 21.2376 27.5514 20.8036 27.2713 20.4536C26.9911 20.1036 26.6014 19.8579 26.1648 19.7559L22.9998 19.0559C22.6084 18.9725 22.2009 19.0084 21.8301 19.1591C21.4593 19.3097 21.1422 19.5681 20.9198 19.9009L20.2198 20.9609C20.1556 21.0579 20.0595 21.1295 19.9481 21.1633C19.8368 21.197 19.7172 21.1909 19.6098 21.1459C17.9998 20.4509 11.5848 17.4509 10.8798 12.3909C10.866 12.2932 10.8815 12.1936 10.9242 12.1046C10.9669 12.0156 11.035 11.9413 11.1198 11.8909L12.3898 11.1159C12.7382 10.9001 13.0118 10.5824 13.1737 10.2059C13.3355 9.8294 13.3778 9.41227 13.2948 9.01094L12.5998 5.79094C12.4982 5.33978 12.2434 4.93777 11.8788 4.65334C11.5141 4.36891 11.0622 4.21964 10.5998 4.23094L5.55484 4.42594Z" stroke="#5DAC19" stroke-width="2"/>
</svg>
