<svg width="32" height="23" viewBox="0 0 32 23" fill="none" xmlns="http://www.w3.org/2000/svg">
<path d="M31.4839 17.3948H30.9677V13.3909C30.967 12.8601 30.7493 12.3513 30.3623 11.9761C29.9752 11.6008 29.4505 11.3896 28.9032 11.3889V2.88062C28.9025 2.34988 28.6848 1.84108 28.2978 1.46579C27.9107 1.0905 27.386 0.879357 26.8387 0.878662H5.16129C4.61397 0.879357 4.08927 1.0905 3.70225 1.46579C3.31523 1.84108 3.09749 2.34988 3.09677 2.88062V11.3889C2.54945 11.3896 2.02475 11.6008 1.63773 11.9761C1.25072 12.3513 1.03297 12.8601 1.03226 13.3909V17.3948H0.516129C0.379243 17.3948 0.247964 17.4475 0.151171 17.5414C0.0543777 17.6352 0 17.7625 0 17.8953V19.8972C0 20.03 0.0543777 20.1573 0.151171 20.2511C0.247964 20.345 0.379243 20.3977 0.516129 20.3977H1.03226V22.3997C1.03226 22.5324 1.08664 22.6597 1.18343 22.7536C1.28022 22.8474 1.4115 22.9002 1.54839 22.9002H3.09677C3.21606 22.9002 3.33168 22.8602 3.42391 22.7868C3.51615 22.7135 3.57929 22.6113 3.60258 22.4979L4.03613 20.3977H27.9639L28.3974 22.4979C28.4207 22.6113 28.4839 22.7135 28.5761 22.7868C28.6683 22.8602 28.7839 22.9002 28.9032 22.9002H30.4516C30.5885 22.9002 30.7198 22.8474 30.8166 22.7536C30.9134 22.6597 30.9677 22.5324 30.9677 22.3997V20.3977H31.4839C31.6208 20.3977 31.752 20.345 31.8488 20.2511C31.9456 20.1573 32 20.03 32 19.8972V17.8953C32 17.7625 31.9456 17.6352 31.8488 17.5414C31.752 17.4475 31.6208 17.3948 31.4839 17.3948ZM4.12903 2.88062C4.12939 2.61525 4.23826 2.36085 4.43177 2.1732C4.62528 1.98556 4.88763 1.87999 5.16129 1.87964H26.8387C27.1124 1.87999 27.3747 1.98556 27.5682 2.1732C27.7617 2.36085 27.8706 2.61525 27.871 2.88062V11.3889H26.8387V9.38697C26.838 8.85623 26.6203 8.34743 26.2332 7.97214C25.8462 7.59685 25.3215 7.38571 24.7742 7.38502H18.5806C18.0333 7.38571 17.5086 7.59685 17.1216 7.97214C16.7346 8.34743 16.5168 8.85623 16.5161 9.38697V11.3889H15.4839V9.38697C15.4832 8.85623 15.2654 8.34743 14.8784 7.97214C14.4914 7.59685 13.9667 7.38571 13.4194 7.38502H7.22581C6.67848 7.38571 6.15378 7.59685 5.76676 7.97214C5.37975 8.34743 5.16201 8.85623 5.16129 9.38697V11.3889H4.12903V2.88062ZM25.8065 9.38697V11.3889H17.5484V9.38697C17.5487 9.1216 17.6576 8.8672 17.8511 8.67956C18.0446 8.49191 18.307 8.38634 18.5806 8.38599H24.7742C25.0479 8.38634 25.3102 8.49191 25.5037 8.67956C25.6972 8.8672 25.8061 9.1216 25.8065 9.38697ZM14.4516 9.38697V11.3889H6.19355V9.38697C6.19391 9.1216 6.30278 8.8672 6.49629 8.67956C6.68979 8.49191 6.95214 8.38634 7.22581 8.38599H13.4194C13.693 8.38634 13.9554 8.49191 14.1489 8.67956C14.3424 8.8672 14.4513 9.1216 14.4516 9.38697ZM2.06452 13.3909C2.06487 13.1255 2.17375 12.8711 2.36725 12.6835C2.56076 12.4958 2.82311 12.3903 3.09677 12.3899H28.9032C29.1769 12.3903 29.4392 12.4958 29.6327 12.6835C29.8263 12.8711 29.9351 13.1255 29.9355 13.3909V17.3948H2.06452V13.3909ZM2.67355 21.8992H2.06452V20.3977H2.98323L2.67355 21.8992ZM29.9355 21.8992H29.3265L29.0168 20.3977H29.9355V21.8992ZM30.9677 19.3967H1.03226V18.3958H30.9677V19.3967Z" fill="#272B34"/>
</svg>
