<svg width="33" height="32" viewBox="0 0 33 32" fill="none" xmlns="http://www.w3.org/2000/svg">
<g clip-path="url(#clip0_435:49)">
<path d="M32.4213 20.0144L31.8888 18.9815C31.7986 18.8066 31.6141 18.6961 31.4124 18.6961H30.8798V17.6632C30.8798 17.5262 30.8237 17.3948 30.7239 17.298L29.6587 16.2651C29.5588 16.1682 29.4233 16.1138 29.2821 16.1138H27.6843C27.4826 16.1138 27.2982 16.2243 27.208 16.3993L27.1517 16.5083L27.0955 16.3993C27.0053 16.2243 26.8209 16.1138 26.6191 16.1138H24.4888C24.2871 16.1138 24.1027 16.2243 24.0125 16.3993L23.4799 17.4322C23.4167 17.5547 23.4062 17.6965 23.4509 17.8265L23.5723 18.1796H23.4236C23.2823 18.1796 23.1469 18.234 23.047 18.3309L21.9818 19.3638C21.882 19.4606 21.8258 19.592 21.8258 19.729V20.7619H20.7004C20.5341 20.1153 20.0382 19.596 19.3861 19.3858L19.092 19.2907L18.0977 14.4703V10.3898C18.0961 8.96436 16.9048 7.80919 15.4348 7.80758H13.5663L13.5546 6.4375C14.0796 5.87961 14.3704 5.15142 14.3696 4.39617V3.15954C14.3703 1.73408 13.1792 0.578005 11.7092 0.577295C11.2712 0.577101 10.8398 0.681746 10.4535 0.881935C10.0387 0.126693 9.0711 -0.159549 8.29226 0.2427C7.51342 0.644949 7.21823 1.58321 7.63305 2.33845C7.91066 2.84392 8.45317 3.15973 9.04381 3.15954V4.39617C9.04314 5.15432 9.3362 5.8851 9.86493 6.44363V7.80758H7.97863C6.50862 7.80919 5.31736 8.96436 5.31569 10.3898V14.4703L4.32142 19.2907L4.02737 19.3858C3.37521 19.596 2.87937 20.1153 2.71307 20.7619H1.05493C0.760805 20.7619 0.522339 20.9931 0.522339 21.2783V30.5744C0.522339 30.8596 0.760805 31.0908 1.05493 31.0908H3.18528C3.4794 31.0908 3.71786 30.8596 3.71786 30.5744V23.8605H6.97996L9.06571 30.6782C9.13202 30.8948 9.33587 31.0445 9.56887 31.0477L12.72 31.0908H12.7275C13.0216 31.0908 13.26 30.8595 13.26 30.5743C13.26 30.493 13.2403 30.4129 13.2023 30.3404L11.8579 27.7751L10.7328 22.6757L13.3274 28.1535L13.8477 30.6343C13.8981 30.8749 14.1164 31.0478 14.3696 31.0478H17.0326C17.3267 31.0478 17.5651 30.8166 17.5651 30.5313C17.5651 30.4753 17.5558 30.4196 17.5373 30.3665L15.2785 23.8605H19.6955V30.5744C19.6955 30.8596 19.934 31.0908 20.2281 31.0908H31.945C32.2391 31.0908 32.4776 30.8596 32.4776 30.5744V20.2454C32.4776 20.1652 32.4584 20.0861 32.4213 20.0144ZM31.4124 20.3673V20.7619H29.8147V20.4593L30.5678 19.729H31.0833L31.4124 20.3673ZM25.554 20.0317V19.2125H26.3986L26.6812 19.4867L26.6754 19.498C26.6122 19.6205 26.6018 19.7623 26.6464 19.8923L26.9453 20.7619H26.3071L25.554 20.0317ZM27.7268 19.7687L28.0135 19.2125H29.2821V19.515L28.9055 19.8802C28.8056 19.977 28.7495 20.1084 28.7495 20.2454V20.7619H28.0682L27.7268 19.7687ZM28.0135 17.1467H29.0615L29.8147 17.877V18.1796H28.4375L27.7998 17.5612L28.0135 17.1467ZM24.5313 17.7027L24.8179 17.1467H26.29L26.5767 17.7028L26.4128 18.1796H24.6952L24.5313 17.7027ZM22.891 19.9428L23.6442 19.2125H24.4888V20.0315L23.7356 20.7619H22.891V19.9428ZM9.55409 17.9551C9.55223 17.9578 9.55063 17.9606 9.54877 17.9633C9.33886 17.6579 9.04341 17.4168 8.69716 17.2686L9.53825 15.2294C9.59477 15.0924 9.58811 14.9386 9.52007 14.8066C9.52007 14.8066 8.5714 13.2742 8.45676 13.0475C8.4525 13.0391 8.44764 13.0311 8.44298 13.0229C8.35484 12.8427 8.29213 12.6518 8.25658 12.4554H14.4161L13.9422 14.5234C13.8527 14.9107 13.9206 15.3165 14.1318 15.6566L15.2074 17.3949C15.3563 17.6359 15.4349 17.9116 15.4348 18.1925V19.1697C15.4338 19.8985 14.9098 20.5284 14.1755 20.6837L13.4826 18.6877C13.1544 17.7408 12.2391 17.1031 11.2089 17.1037C10.5457 17.1033 9.92557 17.4223 9.55409 17.9551ZM10.1156 4.54788L13.3044 3.38826V4.39617C13.3052 5.06433 12.9607 5.68846 12.387 6.05849C11.975 6.32479 11.4383 6.32479 11.0264 6.05849C10.4988 5.71803 10.1628 5.16065 10.1156 4.54788ZM13.079 2.36724L10.1089 3.44726V3.15954C10.1087 2.30411 10.8235 1.61045 11.7057 1.61013C12.2692 1.60993 12.791 1.89766 13.079 2.36724ZM9.04374 2.12664C8.74962 2.12664 8.51115 1.8954 8.51115 1.61019C8.51115 1.32498 8.74962 1.09374 9.04374 1.09374C9.33786 1.09374 9.57633 1.32498 9.57633 1.61019V1.61213C9.46708 1.75331 9.37308 1.90496 9.29572 2.06473C9.2183 2.10527 9.13169 2.12651 9.04374 2.12664ZM4.36423 20.3657L4.95147 20.1759C5.13282 20.1173 5.26783 19.9689 5.30531 19.7872L6.37048 14.6227C6.37734 14.5893 6.3808 14.5554 6.3808 14.5214V10.3898C6.3818 9.53458 7.0966 8.84144 7.97857 8.84047H10.3974C10.6916 8.84047 10.93 8.60923 10.93 8.32403V7.15866C11.4359 7.33664 11.9906 7.33522 12.4954 7.15459L12.5056 8.32835C12.508 8.61188 12.7457 8.84054 13.0381 8.84054H15.4348C16.3168 8.84151 17.0316 9.53465 17.0326 10.3899V14.5215C17.0326 14.5555 17.036 14.5894 17.0429 14.6228L18.1081 19.7873C18.1455 19.969 18.2805 20.1173 18.4619 20.1759L19.0491 20.3657C19.2455 20.429 19.415 20.5531 19.5315 20.7189H17.4562L15.9674 14.4626V10.3898C15.9674 10.1046 15.729 9.87331 15.4349 9.87324C15.1852 9.87318 14.969 10.0414 14.9149 10.2778L14.6525 11.4227H8.32475L8.50217 10.4828L7.45443 10.2969L7.16637 11.8247L7.17429 11.8261C7.1675 11.8549 7.16331 11.8841 7.16164 11.9135C7.13588 12.4218 7.23328 12.9289 7.44598 13.3941V14.4626L6.74469 17.4094C6.49711 17.5541 6.28094 17.7441 6.10832 17.969C5.68624 18.5123 5.55649 19.2183 5.75894 19.8696L6.01858 20.7188H3.88157C3.99814 20.5529 4.16777 20.4289 4.36423 20.3657ZM16.3735 20.7619H15.9305C16.0577 20.6057 16.166 20.4358 16.253 20.2555L16.3735 20.7619ZM2.65269 30.0579H1.58751V23.8605H2.65269V30.0579ZM1.58751 22.8276V21.7947H6.34792L6.66394 22.8276H1.58751ZM10.8768 28.183L11.8531 30.0459L9.97577 30.0201L6.78024 19.5758C6.5987 18.9825 6.94754 18.3589 7.55942 18.1828C7.66614 18.1522 7.77678 18.1366 7.88809 18.1366C8.31782 18.1356 8.6923 18.42 8.79429 18.8248L10.8309 28.0571C10.8406 28.1008 10.856 28.1431 10.8768 28.183ZM14.8047 30.0149L14.3586 27.8892C14.3504 27.8504 14.3377 27.8126 14.3207 27.7766L10.338 19.3671C10.1527 18.9006 10.3923 18.3768 10.8733 18.1971C10.9804 18.1571 11.0941 18.1366 11.2089 18.1366C11.7817 18.1362 12.2907 18.4908 12.4731 19.0173L16.2913 30.0149H14.8047ZM14.5613 21.7947H21.8258V22.8276H14.9199L14.5613 21.7947ZM20.7607 23.8605H21.8258V30.0579H20.7607V23.8605ZM22.891 30.0579V21.7947H31.4124V22.8276H23.9562V23.8605H31.4124V30.0579H22.891Z" fill="#272B34"/>
<path d="M23.9562 24.8936H25.0213V25.9264H23.9562V24.8936Z" fill="#272B34"/>
<path d="M23.9562 26.9592H25.0213V29.025H23.9562V26.9592Z" fill="#272B34"/>
<path d="M23.7458 11.2348C23.5045 11.7056 23.5045 12.2588 23.7458 12.7296C23.838 12.9094 23.838 13.1207 23.7458 13.3006C23.5045 13.7714 23.5045 14.3246 23.7458 14.7954L24.0121 15.3118L24.9647 14.8499L24.6984 14.3334C24.6064 14.1536 24.6064 13.9423 24.6984 13.7624C24.9399 13.2917 24.9399 12.7384 24.6984 12.2676C24.6064 12.0878 24.6064 11.8765 24.6984 11.6966C24.9398 11.2258 24.9398 10.6726 24.6984 10.2018L24.4322 9.6853L23.4795 10.1473L23.7458 10.6637C23.838 10.8436 23.838 11.0549 23.7458 11.2348Z" fill="#272B34"/>
<path d="M26.4091 11.2348C26.1679 11.7056 26.1679 12.2587 26.4091 12.7295C26.5013 12.9094 26.5013 13.1207 26.4091 13.3006C26.1679 13.7714 26.1679 14.3246 26.4091 14.7954L26.6754 15.3118L27.6281 14.8499L27.3618 14.3334C27.2696 14.1536 27.2696 13.9422 27.3618 13.7623C27.603 13.2915 27.603 12.7384 27.3618 12.2676C27.2696 12.0878 27.2696 11.8764 27.3618 11.6965C27.603 11.2257 27.603 10.6726 27.3618 10.2018L27.0955 9.6853L26.1428 10.1473L26.4091 10.6637C26.5013 10.8436 26.5013 11.0549 26.4091 11.2348Z" fill="#272B34"/>
<path d="M29.0721 11.2348C28.8308 11.7056 28.8308 12.2587 29.0721 12.7295C29.1642 12.9094 29.1642 13.1207 29.0721 13.3006C28.8308 13.7714 28.8308 14.3246 29.0721 14.7954L29.3384 15.3118L30.291 14.8499L30.0247 14.3334C29.9326 14.1536 29.9326 13.9422 30.0247 13.7623C30.266 13.2915 30.266 12.7384 30.0247 12.2676C29.9326 12.0878 29.9326 11.8764 30.0247 11.6965C30.266 11.2257 30.266 10.6726 30.0247 10.2018L29.7584 9.6853L28.8058 10.1473L29.0721 10.6637C29.1642 10.8436 29.1642 11.0549 29.0721 11.2348Z" fill="#272B34"/>
</g>
<defs>
<clipPath id="clip0_435:49">
<rect width="32" height="31.0303" fill="white" transform="translate(0.5 0.0605469)"/>
</clipPath>
</defs>
</svg>
