<svg width="24" height="25" viewBox="0 0 24 25" fill="none" xmlns="http://www.w3.org/2000/svg">
<path d="M13.3726 14.1507C12.1604 13.6303 11.1433 12.7405 10.4663 11.6082C10.4356 11.5516 10.4234 11.4868 10.4314 11.4229C10.4395 11.3589 10.4675 11.2992 10.5113 11.252L11.0926 10.6182C11.1329 10.5754 11.1598 10.5216 11.1698 10.4636C11.1798 10.4056 11.1725 10.3459 11.1488 10.292L10.2338 8.54824C10.2338 8.54824 9.82884 7.92949 9.00009 8.46199C9.00009 8.46199 6.82134 10.1645 8.21259 12.5045C9.60384 14.8445 10.9126 15.6357 12.0901 16.2095C13.1138 16.7082 15.3301 17.372 16.6688 14.9382C16.6688 14.9382 17.1376 14.1882 16.6688 13.997C16.4551 13.9107 15.2888 13.3332 14.7938 13.0932C14.7312 13.0624 14.66 13.0538 14.5919 13.0688C14.5237 13.0838 14.4627 13.1215 14.4188 13.1757L13.7213 14.057C13.6809 14.1079 13.6252 14.1444 13.5624 14.1613C13.4996 14.1782 13.4331 14.1745 13.3726 14.1507V14.1507Z" stroke="#E5E5E5"/>
<path d="M3.32251 20.8332L4.82251 16.6332C3.81395 14.808 3.50084 12.6792 3.94113 10.6408C4.38142 8.60247 5.54531 6.79267 7.21732 5.54645C8.88933 4.30022 10.9562 3.70197 13.0354 3.86244C15.1146 4.02291 17.0652 4.93124 18.5262 6.41928C19.9872 7.90731 20.8595 9.87427 20.9818 11.956C21.1041 14.0378 20.4681 16.0934 19.1914 17.7423C17.9147 19.3911 16.0838 20.5216 14.0378 20.9244C11.9917 21.3272 9.86894 20.9751 8.06251 19.9332L3.32251 20.8332Z" stroke="#E5E5E5" stroke-linecap="round"/>
</svg>
