<svg width="37" height="37" viewBox="0 0 37 37" fill="none" xmlns="http://www.w3.org/2000/svg">
<path d="M20.5588 20.2898C18.7404 19.5091 17.2148 18.1745 16.1994 16.4761C16.1532 16.3911 16.1349 16.2939 16.147 16.198C16.1592 16.1021 16.2011 16.0124 16.2669 15.9417L17.1388 14.9911C17.1993 14.9268 17.2396 14.8461 17.2546 14.7591C17.2696 14.672 17.2586 14.5825 17.2231 14.5017L15.8506 11.8861C15.8506 11.8861 15.2431 10.9579 14 11.7567C14 11.7567 10.7319 14.3104 12.8188 17.8204C14.9056 21.3304 16.8688 22.5173 18.635 23.3779C20.1706 24.1261 23.495 25.1217 25.5031 21.4711C25.5031 21.4711 26.2063 20.3461 25.5031 20.0592C25.1825 19.9298 23.4331 19.0636 22.6906 18.7036C22.5968 18.6573 22.4899 18.6444 22.3877 18.6668C22.2855 18.6893 22.194 18.7459 22.1281 18.8273L21.0819 20.1492C21.0212 20.2255 20.9377 20.2804 20.8435 20.3057C20.7493 20.331 20.6495 20.3254 20.5588 20.2898V20.2898Z" stroke="#272B34"/>
<path d="M5.48364 30.3136L7.73364 24.0136C6.22081 21.2757 5.75113 18.0824 6.41157 15.0249C7.07201 11.9674 8.81784 9.2527 11.3259 7.38336C13.8339 5.51402 16.9342 4.61664 20.053 4.85735C23.1717 5.09806 26.0977 6.46055 28.2892 8.6926C30.4806 10.9247 31.7892 13.8751 31.9726 16.9977C32.1561 20.1204 31.202 23.2038 29.2869 25.6771C27.3719 28.1504 24.6256 29.8461 21.5565 30.4503C18.4874 31.0546 15.3033 30.5264 12.5936 28.9636L5.48364 30.3136Z" stroke="#272B34" stroke-linecap="round"/>
</svg>
